<?xml version="1.0" encoding="UTF-8" standalone="no"?>
<!-- Created with Inkscape (http://www.inkscape.org/) -->

<svg
   width="100.51986mm"
   height="105.58474mm"
   viewBox="0 0 100.51986 105.58474"
   version="1.1"
   id="svg1"
   xml:space="preserve"
   xmlns:inkscape="http://www.inkscape.org/namespaces/inkscape"
   xmlns:sodipodi="http://sodipodi.sourceforge.net/DTD/sodipodi-0.dtd"
   xmlns="http://www.w3.org/2000/svg"
   xmlns:svg="http://www.w3.org/2000/svg"><sodipodi:namedview
     id="namedview1"
     pagecolor="#ffffff"
     bordercolor="#000000"
     borderopacity="0.25"
     inkscape:showpageshadow="2"
     inkscape:pageopacity="0.0"
     inkscape:pagecheckerboard="0"
     inkscape:deskcolor="#d1d1d1"
     inkscape:document-units="mm"><inkscape:page
       x="0"
       y="0"
       width="100.51986"
       height="105.58474"
       id="page8"
       margin="0"
       bleed="0" /></sodipodi:namedview><defs
     id="defs1" /><g
     id="layer-MC1"
     inkscape:groupmode="layer"
     inkscape:label="Livello 1"
     transform="matrix(0.26458333,0,0,0.26458334,-98.240106,-47.501708)"><path
       id="path1"
       d="m 0,0 c 1.231,-19.891 1.792,-48.281 -16.607,-62.367 -41.484,-31.727 -115.01,-44.344 -158.651,-46.261 -19.892,-1.229 -48.283,-1.792 -62.369,16.606 -31.731,41.48 -44.352,115.01 -46.27,158.647 -1.23,19.888 -1.791,48.283 16.603,62.369 41.485,31.731 115.018,44.354 158.659,46.272 19.888,1.231 48.283,1.794 62.367,-16.605 C -14.537,117.174 -1.917,43.643 0,0"
       style="fill:#e85d26;fill-opacity:1;fill-rule:nonzero;stroke:none"
       transform="matrix(1.3333333,0,0,-1.3333333,750.52427,413.9168)" /><path
       id="path2"
       d="m 0,0 c 0,-2.34 1.913,-4.253 4.253,-4.253 h 8.741 c 2.34,0 6.137,0.352 8.435,0.774 0,0 3.395,0.632 5.576,3.236 2.076,2.531 3.112,5.344 3.112,8.439 0,2.564 -0.42,4.727 -1.266,6.487 -0.879,1.582 -2.11,2.828 -3.692,3.744 -2.391,1.512 -5.17,2.234 -8.335,2.165 H 4.253 C 1.913,20.592 0,18.677 0,16.337 Z m -11.659,27.361 c 0,2.34 1.916,4.253 4.254,4.253 h 19.344 c 2.34,0 6.166,-0.092 8.502,-0.201 0,0 1.695,-0.082 4.508,-0.643 2.813,-0.739 5.66,-2.25 8.544,-4.535 2.426,-1.725 4.396,-4.187 5.907,-7.385 1.582,-3.093 2.374,-6.752 2.374,-10.972 0,-5.697 -2.006,-10.884 -6.012,-15.56 -4.115,-4.923 -10.128,-7.455 -18.04,-7.593 H 4.253 C 1.913,-15.275 0,-17.19 0,-19.53 v -21.507 c 0,-2.34 -1.913,-4.253 -4.253,-4.253 h -3.152 c -2.338,0 -4.254,1.913 -4.254,4.253 z"
       style="fill:#e85d26;fill-opacity:1;fill-rule:nonzero;stroke:none"
       transform="matrix(1.3333333,0,0,-1.3333333,548.524,353.36453)" /><path
       id="path3"
       d="M 0,0 C 0,2.338 -1.913,4.253 -4.253,4.253 H -26.18 c -2.34,0 -4.253,-1.915 -4.253,-4.253 v -25.094 c 0,-2.34 -1.913,-4.253 -4.253,-4.253 h -3.153 c -2.338,0 -4.253,1.913 -4.253,4.253 v 68.398 c 0,2.34 1.915,4.253 4.253,4.253 h 3.153 c 2.34,0 4.253,-1.913 4.253,-4.253 v -24.46 c 0,-2.34 1.913,-4.253 4.253,-4.253 h 21.927 c 2.34,0 4.253,1.913 4.253,4.253 v 24.46 c 0,2.34 1.913,4.253 4.253,4.253 h 3.152 c 2.338,0 4.254,-1.913 4.254,-4.253 v -68.398 c 0,-2.34 -1.916,-4.253 -4.254,-4.253 H 4.253 c -2.34,0 -4.253,1.913 -4.253,4.253 z"
       style="fill:#e85d26;fill-opacity:1;fill-rule:nonzero;stroke:none"
       transform="matrix(1.3333333,0,0,-1.3333333,668.71347,374.62187)" /><path
       id="path4"
       d="m 0,0 c 0,2.34 1.915,4.253 4.253,4.253 h 3.152 c 2.34,0 4.253,-1.913 4.253,-4.253 v -68.398 c 0,-2.34 -1.913,-4.253 -4.253,-4.253 H 4.253 C 1.915,-72.651 0,-70.738 0,-68.398 Z"
       style="fill:#e85d26;fill-opacity:1;fill-rule:nonzero;stroke:none"
       transform="matrix(1.3333333,0,0,-1.3333333,696.68707,316.88373)" /><path
       id="path5"
       d="m 0,0 c -3.447,4.182 -8.772,6.769 -15.98,7.753 -3.659,0.456 -6.543,0.862 -8.653,1.214 -3.797,0.703 -6.556,1.967 -8.28,3.797 -1.723,1.791 -2.583,3.796 -2.583,6.011 0.069,3.692 1.352,6.469 3.849,8.334 2.392,1.794 5.381,2.692 8.967,2.692 6.926,-0.142 15.202,-4.081 15.202,-4.081 2.111,-1.005 4.91,-0.243 6.22,1.695 2.421,3.583 2.891,7.671 -2.996,10.191 -5.367,2.422 -10.912,3.706 -17.443,3.849 -7.945,-0.071 -14.486,-2.143 -18.81,-6.222 -4.467,-4.113 -6.7,-9.53 -6.7,-16.245 0,-5.592 1.777,-10.339 5.327,-14.241 3.445,-3.799 8.475,-6.246 15.087,-7.334 3.692,-0.528 7.083,-1.001 10.178,-1.423 6.75,-1.16 10.091,-4.609 10.022,-10.338 -0.14,-6.997 -5.205,-10.568 -15.189,-10.706 -2.115,0.016 -4.15,0.204 -6.119,0.534 -0.265,0.045 -0.526,0.1 -0.787,0.168 -5.881,1.533 -9.806,3.981 -9.806,3.981 -2.01,1.203 -4.869,0.709 -6.357,-1.095 l -2.254,-2.652 c -1.368,-1.611 -1.01,-4.06 0.781,-5.182 4.163,-2.607 11.125,-6.224 19.223,-7.153 1.7,-0.17 3.435,-0.26 5.212,-0.26 17.617,0.212 26.617,7.665 27.007,22.365 C 5.118,-8.898 3.41,-4.115 0,0"
       style="fill:#e85d26;fill-opacity:1;fill-rule:nonzero;stroke:none"
       transform="matrix(1.3333333,0,0,-1.3333333,517.38787,365.644)" /><path
       id="path6"
       d="m 0,0 h -13.963 c -2.34,0 -3.65,1.817 -2.915,4.038 l 8.454,25.525 c 0.736,2.22 1.385,4.037 1.444,4.037 0.054,0 0.707,-1.817 1.442,-4.037 L 2.916,4.038 C 3.652,1.817 2.34,0 0,0 m -0.676,45.372 c -0.799,2.199 -3.366,3.997 -5.706,3.997 h -1.252 c -2.339,0 -4.908,-1.798 -5.705,-3.997 L -29.547,0.788 c 1.069,-7.402 2.377,-15.06 3.935,-22.824 l 2.639,7.675 c 0.759,2.213 3.294,4.023 5.634,4.023 H 3.322 c 2.34,0 4.881,-1.808 5.647,-4.018 l 3.173,-9.16 c 0.766,-2.21 3.307,-4.018 5.647,-4.018 h 3.784 c 2.341,0 3.598,1.8 2.801,3.997 z"
       style="fill:#e85d26;fill-opacity:1;fill-rule:nonzero;stroke:none"
       transform="matrix(1.3333333,0,0,-1.3333333,416.32067,377.03867)" /><path
       id="path7"
       d="m 0,0 c 0,-2.34 1.913,-4.253 4.253,-4.253 h 8.741 c 2.34,0 6.137,0.352 8.435,0.774 0,0 3.395,0.632 5.576,3.236 2.076,2.531 3.112,5.344 3.112,8.439 0,2.564 -0.42,4.727 -1.266,6.487 -0.879,1.582 -2.11,2.828 -3.692,3.744 -2.391,1.512 -5.17,2.234 -8.335,2.165 H 4.253 C 1.913,20.592 0,18.677 0,16.337 Z m -11.659,27.361 c 0,2.34 1.916,4.253 4.254,4.253 h 19.344 c 2.34,0 6.166,-0.092 8.502,-0.201 0,0 1.695,-0.082 4.508,-0.643 2.813,-0.739 5.66,-2.25 8.544,-4.535 2.426,-1.725 4.396,-4.187 5.907,-7.385 1.582,-3.093 2.374,-6.752 2.374,-10.972 0,-5.697 -2.006,-10.884 -6.012,-15.56 -4.115,-4.923 -10.128,-7.455 -18.04,-7.593 H 4.253 C 1.913,-15.275 0,-17.19 0,-19.53 v -21.507 c 0,-2.34 -1.913,-4.253 -4.253,-4.253 h -3.152 c -2.338,0 -4.254,1.913 -4.254,4.253 z"
       style="fill:#ffffff;fill-opacity:1;fill-rule:nonzero;stroke:none"
       transform="matrix(1.3333333,0,0,-1.3333333,548.524,353.36453)" /><path
       id="path8"
       d="M 0,0 C 0,2.338 -1.913,4.253 -4.253,4.253 H -26.18 c -2.34,0 -4.253,-1.915 -4.253,-4.253 v -25.094 c 0,-2.34 -1.913,-4.253 -4.253,-4.253 h -3.153 c -2.338,0 -4.253,1.913 -4.253,4.253 v 68.398 c 0,2.34 1.915,4.253 4.253,4.253 h 3.153 c 2.34,0 4.253,-1.913 4.253,-4.253 v -24.46 c 0,-2.34 1.913,-4.253 4.253,-4.253 h 21.927 c 2.34,0 4.253,1.913 4.253,4.253 v 24.46 c 0,2.34 1.913,4.253 4.253,4.253 h 3.152 c 2.338,0 4.254,-1.913 4.254,-4.253 v -68.398 c 0,-2.34 -1.916,-4.253 -4.254,-4.253 H 4.253 c -2.34,0 -4.253,1.913 -4.253,4.253 z"
       style="fill:#ffffff;fill-opacity:1;fill-rule:nonzero;stroke:none"
       transform="matrix(1.3333333,0,0,-1.3333333,668.71347,374.62187)" /><path
       id="path9"
       d="m 0,0 c 0,2.34 1.915,4.253 4.253,4.253 h 3.152 c 2.34,0 4.253,-1.913 4.253,-4.253 v -68.398 c 0,-2.34 -1.913,-4.253 -4.253,-4.253 H 4.253 C 1.915,-72.651 0,-70.738 0,-68.398 Z"
       style="fill:#ffffff;fill-opacity:1;fill-rule:nonzero;stroke:none"
       transform="matrix(1.3333333,0,0,-1.3333333,696.68707,316.88373)" /><path
       id="path10"
       d="m 0,0 c -3.447,4.182 -8.772,6.769 -15.98,7.753 -3.659,0.456 -6.543,0.862 -8.653,1.214 -3.797,0.703 -6.556,1.967 -8.28,3.797 -1.723,1.791 -2.583,3.796 -2.583,6.011 0.069,3.692 1.352,6.469 3.849,8.334 2.392,1.794 5.381,2.692 8.967,2.692 6.926,-0.142 15.202,-4.081 15.202,-4.081 2.111,-1.005 4.91,-0.243 6.22,1.695 2.421,3.583 2.891,7.671 -2.996,10.191 -5.367,2.422 -10.912,3.706 -17.443,3.849 -7.945,-0.071 -14.486,-2.143 -18.81,-6.222 -4.467,-4.113 -6.7,-9.53 -6.7,-16.245 0,-5.592 1.777,-10.339 5.327,-14.241 3.445,-3.799 8.475,-6.246 15.087,-7.334 3.692,-0.528 7.083,-1.001 10.178,-1.423 6.75,-1.16 10.091,-4.609 10.022,-10.338 -0.14,-6.997 -5.205,-10.568 -15.189,-10.706 -2.115,0.016 -4.15,0.204 -6.119,0.534 -0.265,0.045 -0.526,0.1 -0.787,0.168 -5.881,1.533 -9.806,3.981 -9.806,3.981 -2.01,1.203 -4.869,0.709 -6.357,-1.095 l -2.254,-2.652 c -1.368,-1.611 -1.01,-4.06 0.781,-5.182 4.163,-2.607 11.125,-6.224 19.223,-7.153 1.7,-0.17 3.435,-0.26 5.212,-0.26 17.617,0.212 26.617,7.665 27.007,22.365 C 5.118,-8.898 3.41,-4.115 0,0"
       style="fill:#ffffff;fill-opacity:1;fill-rule:nonzero;stroke:none"
       transform="matrix(1.3333333,0,0,-1.3333333,517.38787,365.644)" /><path
       id="path11"
       d="m 0,0 h -13.963 c -2.34,0 -3.65,1.817 -2.915,4.038 l 8.454,25.525 c 0.736,2.22 1.385,4.037 1.444,4.037 0.054,0 0.707,-1.817 1.442,-4.037 L 2.916,4.038 C 3.652,1.817 2.34,0 0,0 m -0.676,45.372 c -0.799,2.199 -3.366,3.997 -5.706,3.997 h -1.252 c -2.339,0 -4.908,-1.798 -5.705,-3.997 L -29.547,0.788 c 1.069,-7.402 2.377,-15.06 3.935,-22.824 l 2.639,7.675 c 0.759,2.213 3.294,4.023 5.634,4.023 H 3.322 c 2.34,0 4.881,-1.808 5.647,-4.018 l 3.173,-9.16 c 0.766,-2.21 3.307,-4.018 5.647,-4.018 h 3.784 c 2.341,0 3.598,1.8 2.801,3.997 z"
       style="fill:#ffffff;fill-opacity:1;fill-rule:nonzero;stroke:none"
       transform="matrix(1.3333333,0,0,-1.3333333,416.32067,377.03867)" /><path
       id="path12"
       d="M 0,0 C 0,-0.378 -0.017,-0.694 -0.049,-0.948 -0.082,-1.202 -0.131,-1.407 -0.196,-1.563 -0.261,-1.72 -0.342,-1.833 -0.44,-1.905 -0.538,-1.977 -0.645,-2.013 -0.762,-2.013 h -12.706 c -0.43,0 -0.792,0.128 -1.085,0.381 -0.293,0.254 -0.44,0.668 -0.44,1.241 v 22.049 c 0,0.574 0.147,0.988 0.44,1.242 0.293,0.254 0.655,0.381 1.085,0.381 h 12.627 c 0.117,0 0.221,-0.032 0.313,-0.098 0.091,-0.065 0.169,-0.179 0.234,-0.342 0.066,-0.163 0.114,-0.371 0.147,-0.626 0.033,-0.254 0.049,-0.576 0.049,-0.967 0,-0.364 -0.016,-0.674 -0.049,-0.928 -0.033,-0.255 -0.081,-0.459 -0.147,-0.615 -0.065,-0.158 -0.143,-0.272 -0.234,-0.343 -0.092,-0.071 -0.196,-0.107 -0.313,-0.107 h -9.03 v -6.178 h 7.642 c 0.117,0 0.225,-0.036 0.323,-0.107 0.097,-0.072 0.179,-0.183 0.244,-0.332 0.066,-0.151 0.114,-0.352 0.147,-0.606 0.032,-0.254 0.049,-0.564 0.049,-0.928 0,-0.378 -0.017,-0.692 -0.049,-0.939 C -1.548,9.918 -1.596,9.719 -1.662,9.568 -1.727,9.419 -1.809,9.312 -1.906,9.246 -2.004,9.181 -2.112,9.149 -2.229,9.149 H -9.871 V 2.014 h 9.109 c 0.117,0 0.224,-0.036 0.322,-0.108 C -0.342,1.835 -0.261,1.72 -0.196,1.564 -0.131,1.408 -0.082,1.202 -0.049,0.948 -0.017,0.695 0,0.378 0,0"
       style="fill:#e85d26;fill-opacity:1;fill-rule:nonzero;stroke:none"
       transform="matrix(1.3333333,0,0,-1.3333333,689.94173,575.3116)" /><path
       id="path13"
       d="M 0,0 C 0,-0.378 -0.016,-0.701 -0.049,-0.968 -0.081,-1.235 -0.13,-1.45 -0.195,-1.613 -0.261,-1.776 -0.342,-1.896 -0.44,-1.975 -0.538,-2.053 -0.645,-2.092 -0.762,-2.092 H -7.095 V -22.48 c 0,-0.13 -0.043,-0.248 -0.127,-0.352 -0.085,-0.104 -0.225,-0.188 -0.421,-0.254 -0.196,-0.065 -0.459,-0.117 -0.791,-0.156 -0.333,-0.039 -0.747,-0.059 -1.241,-0.059 -0.496,0 -0.91,0.02 -1.242,0.059 -0.332,0.039 -0.596,0.091 -0.791,0.156 -0.196,0.066 -0.336,0.15 -0.421,0.254 -0.085,0.104 -0.127,0.222 -0.127,0.352 v 20.388 h -6.333 c -0.131,0 -0.242,0.039 -0.332,0.117 -0.092,0.079 -0.17,0.199 -0.235,0.362 -0.065,0.163 -0.114,0.378 -0.147,0.645 -0.032,0.267 -0.048,0.59 -0.048,0.968 0,0.391 0.016,0.723 0.048,0.996 0.033,0.274 0.082,0.492 0.147,0.655 0.065,0.163 0.143,0.281 0.235,0.352 0.09,0.072 0.201,0.108 0.332,0.108 h 17.827 c 0.117,0 0.224,-0.036 0.322,-0.108 C -0.342,1.932 -0.261,1.814 -0.195,1.651 -0.13,1.488 -0.081,1.27 -0.049,0.996 -0.016,0.723 0,0.391 0,0"
       style="fill:#e85d26;fill-opacity:1;fill-rule:nonzero;stroke:none"
       transform="matrix(1.3333333,0,0,-1.3333333,718.42787,547.0844)" /><path
       id="path14"
       d="M 0,0 C 0,-1.328 -0.248,-2.495 -0.743,-3.498 -1.239,-4.502 -1.91,-5.34 -2.757,-6.01 c -0.847,-0.672 -1.837,-1.177 -2.971,-1.516 -1.134,-0.338 -2.345,-0.507 -3.635,-0.507 -0.874,0 -1.685,0.071 -2.434,0.215 -0.749,0.143 -1.411,0.315 -1.984,0.518 -0.573,0.202 -1.053,0.414 -1.437,0.634 -0.384,0.222 -0.661,0.418 -0.831,0.588 -0.169,0.168 -0.29,0.412 -0.361,0.733 -0.072,0.319 -0.107,0.778 -0.107,1.378 0,0.403 0.012,0.742 0.038,1.016 0.026,0.274 0.069,0.494 0.127,0.664 0.059,0.169 0.137,0.291 0.235,0.362 0.098,0.072 0.212,0.108 0.342,0.108 0.182,0 0.44,-0.108 0.772,-0.323 0.332,-0.215 0.759,-0.453 1.28,-0.713 0.522,-0.261 1.144,-0.498 1.867,-0.713 0.723,-0.215 1.561,-0.323 2.512,-0.323 0.626,0 1.186,0.074 1.681,0.224 0.495,0.15 0.916,0.362 1.261,0.636 0.345,0.273 0.609,0.612 0.792,1.016 0.182,0.404 0.273,0.853 0.273,1.348 0,0.574 -0.156,1.066 -0.469,1.477 -0.312,0.41 -0.72,0.775 -1.222,1.094 -0.501,0.319 -1.072,0.619 -1.71,0.9 -0.639,0.279 -1.297,0.577 -1.974,0.889 -0.678,0.313 -1.336,0.668 -1.974,1.066 -0.639,0.396 -1.21,0.872 -1.711,1.426 -0.501,0.554 -0.909,1.208 -1.222,1.964 -0.312,0.756 -0.468,1.663 -0.468,2.718 0,1.212 0.224,2.277 0.674,3.195 0.449,0.919 1.055,1.681 1.817,2.288 0.763,0.606 1.662,1.058 2.698,1.358 1.036,0.3 2.134,0.45 3.294,0.45 0.599,0 1.198,-0.046 1.798,-0.137 0.599,-0.092 1.16,-0.215 1.681,-0.372 0.521,-0.156 0.984,-0.331 1.388,-0.527 0.404,-0.196 0.671,-0.359 0.802,-0.489 0.13,-0.13 0.218,-0.241 0.263,-0.333 0.046,-0.091 0.085,-0.211 0.118,-0.36 0.032,-0.151 0.055,-0.34 0.068,-0.568 0.013,-0.228 0.02,-0.511 0.02,-0.85 0,-0.378 -0.01,-0.697 -0.03,-0.958 -0.019,-0.26 -0.052,-0.475 -0.098,-0.645 -0.045,-0.169 -0.11,-0.293 -0.195,-0.371 -0.085,-0.079 -0.199,-0.118 -0.342,-0.118 -0.144,0 -0.371,0.091 -0.684,0.274 -0.313,0.183 -0.698,0.381 -1.153,0.596 -0.457,0.215 -0.984,0.411 -1.584,0.587 -0.599,0.175 -1.258,0.263 -1.974,0.263 -0.56,0 -1.049,-0.068 -1.466,-0.204 -0.417,-0.137 -0.766,-0.326 -1.046,-0.567 -0.28,-0.242 -0.488,-0.532 -0.625,-0.87 -0.137,-0.339 -0.205,-0.698 -0.205,-1.076 0,-0.56 0.153,-1.046 0.459,-1.456 0.306,-0.411 0.716,-0.775 1.231,-1.095 0.515,-0.319 1.098,-0.618 1.75,-0.898 0.651,-0.281 1.316,-0.577 1.993,-0.89 C -4.757,6.784 -4.092,6.429 -3.44,6.031 -2.789,5.633 -2.209,5.157 -1.701,4.603 -1.192,4.05 -0.782,3.399 -0.469,2.65 -0.157,1.899 0,1.017 0,0"
       style="fill:#e85d26;fill-opacity:1;fill-rule:nonzero;stroke:none"
       transform="matrix(1.3333333,0,0,-1.3333333,742.14587,567.88373)" /></g></svg>
